<?xml version="1.0" encoding="utf-8"?>
<svg width="522" height="669" viewBox="0 0 522 669" fill="none" xmlns="http://www.w3.org/2000/svg">
<path d="M330.288 4.21975C329.99 4.81708 329.712 5.54242 329.456 6.39575C329.243 7.20641 329.051 7.97441 328.88 8.69975C328.539 10.2357 328.091 11.9851 327.536 13.9478C326.982 15.9104 326.32 17.9371 325.552 20.0277C324.784 22.1184 323.867 24.1877 322.8 26.2357C321.776 28.2837 320.603 30.2037 319.28 31.9957C317.36 34.5131 315.12 36.9024 312.56 39.1637C310 41.3824 307.142 43.3877 303.984 45.1797C300.827 46.9291 297.35 48.4224 293.552 49.6598L286.576 42.0437C290.8 41.0197 294.448 39.7611 297.52 38.2677C300.635 36.7317 303.344 35.0251 305.648 33.1477C307.952 31.2277 309.958 29.1797 311.664 27.0037C313.072 25.2117 314.267 23.2704 315.248 21.1797C316.272 19.0891 317.104 16.9771 317.744 14.8438C318.427 12.7104 318.896 10.7477 319.152 8.95575C318.512 8.95575 317.446 8.95575 315.952 8.95575C314.502 8.95575 312.774 8.95575 310.768 8.95575C308.806 8.95575 306.736 8.95575 304.56 8.95575C302.427 8.95575 300.358 8.95575 298.352 8.95575C296.347 8.95575 294.534 8.95575 292.912 8.95575C291.334 8.95575 290.139 8.95575 289.328 8.95575C287.878 8.95575 286.448 8.97708 285.04 9.01975C283.675 9.06241 282.566 9.12642 281.712 9.21175V0.187748C282.395 0.230414 283.184 0.294415 284.08 0.379749C284.976 0.465082 285.915 0.550414 286.896 0.635746C287.878 0.678415 288.71 0.699749 289.392 0.699749C290.032 0.699749 290.992 0.699749 292.272 0.699749C293.552 0.699749 295.024 0.699749 296.688 0.699749C298.352 0.699749 300.08 0.699749 301.872 0.699749C303.707 0.699749 305.52 0.699749 307.312 0.699749C309.104 0.699749 310.79 0.699749 312.368 0.699749C313.947 0.699749 315.312 0.699749 316.464 0.699749C317.659 0.699749 318.491 0.699749 318.96 0.699749C319.6 0.699749 320.39 0.678415 321.328 0.635746C322.267 0.550414 323.142 0.401081 323.952 0.187748L330.288 4.21975ZM518.448 4.21975C518.15 4.81708 517.872 5.54242 517.616 6.39575C517.403 7.20641 517.211 7.97441 517.04 8.69975C516.699 10.2357 516.251 11.9851 515.696 13.9478C515.142 15.9104 514.48 17.9371 513.712 20.0277C512.944 22.1184 512.027 24.1877 510.96 26.2357C509.936 28.2837 508.763 30.2037 507.44 31.9957C505.52 34.5131 503.28 36.9024 500.72 39.1637C498.16 41.3824 495.302 43.3877 492.144 45.1797C488.987 46.9291 485.51 48.4224 481.712 49.6598L474.736 42.0437C478.96 41.0197 482.608 39.7611 485.68 38.2677C488.795 36.7317 491.504 35.0251 493.808 33.1477C496.112 31.2277 498.118 29.1797 499.824 27.0037C501.232 25.2117 502.427 23.2704 503.408 21.1797C504.432 19.0891 505.264 16.9771 505.904 14.8438C506.587 12.7104 507.056 10.7477 507.312 8.95575C506.672 8.95575 505.606 8.95575 504.112 8.95575C502.662 8.95575 500.934 8.95575 498.928 8.95575C496.966 8.95575 494.896 8.95575 492.72 8.95575C490.587 8.95575 488.518 8.95575 486.512 8.95575C484.507 8.95575 482.694 8.95575 481.072 8.95575C479.494 8.95575 478.299 8.95575 477.488 8.95575C476.038 8.95575 474.608 8.97708 473.2 9.01975C471.835 9.06241 470.726 9.12642 469.872 9.21175V0.187748C470.555 0.230414 471.344 0.294415 472.24 0.379749C473.136 0.465082 474.075 0.550414 475.056 0.635746C476.038 0.678415 476.87 0.699749 477.552 0.699749C478.192 0.699749 479.152 0.699749 480.432 0.699749C481.712 0.699749 483.184 0.699749 484.848 0.699749C486.512 0.699749 488.24 0.699749 490.032 0.699749C491.867 0.699749 493.68 0.699749 495.472 0.699749C497.264 0.699749 498.95 0.699749 500.528 0.699749C502.107 0.699749 503.472 0.699749 504.624 0.699749C505.819 0.699749 506.651 0.699749 507.12 0.699749C507.76 0.699749 508.55 0.678415 509.488 0.635746C510.427 0.550414 511.302 0.401081 512.112 0.187748L518.448 4.21975ZM266.52 62.2983V138.844H257.339V62.2983H266.52ZM379.408 123.844V131.185H348.84V123.844H379.408ZM484.88 123.844V131.185H454.312V123.844H484.88ZM510.655 77.2983V123.844H500.974V77.2983H510.655ZM260.82 146.316L262.996 148.492L204.756 206.732L202.58 204.556L260.82 146.316ZM279.462 161.435L272.53 151.094H281.462L286.303 161.435H279.462ZM325.813 150.732C327.477 150.945 329.482 151.265 331.829 151.692C334.218 152.076 336.735 152.524 339.381 153.036C342.069 153.548 344.735 154.124 347.381 154.764C350.069 155.361 352.543 155.958 354.805 156.556C357.109 157.153 359.071 157.729 360.693 158.284L357.429 166.284C355.935 165.729 354.079 165.153 351.861 164.556C349.642 163.916 347.231 163.276 344.629 162.636C342.026 161.996 339.402 161.398 336.757 160.844C334.111 160.289 331.573 159.777 329.141 159.308C326.751 158.838 324.639 158.497 322.805 158.284L325.813 150.732ZM322.869 167.948C325.173 168.332 327.818 168.822 330.805 169.42C333.791 170.017 336.863 170.678 340.021 171.404C343.178 172.086 346.186 172.812 349.045 173.58C351.903 174.305 354.335 175.03 356.341 175.756L353.205 183.756C351.37 183.03 349.045 182.284 346.229 181.516C343.455 180.748 340.49 179.98 337.333 179.212C334.218 178.444 331.125 177.761 328.053 177.164C324.981 176.524 322.271 176.033 319.925 175.692L322.869 167.948ZM319.605 186.252C321.781 186.593 324.255 187.041 327.029 187.596C329.802 188.15 332.682 188.769 335.669 189.452C338.698 190.134 341.663 190.838 344.565 191.564C347.466 192.289 350.154 193.014 352.629 193.74C355.146 194.465 357.279 195.169 359.029 195.852L355.509 203.852C353.802 203.126 351.69 202.38 349.173 201.612C346.655 200.886 343.925 200.161 340.981 199.436C338.037 198.668 335.071 197.964 332.085 197.324C329.098 196.641 326.239 196.044 323.509 195.532C320.821 195.02 318.453 194.614 316.405 194.316L319.605 186.252ZM434.293 205.516V208.524H370.293V205.516H434.293ZM444.967 165.935L451.376 178.139L457.944 165.935H467.876L457.763 183.389L468.149 200.844H458.263L451.376 188.776L444.603 200.844H434.603L444.967 183.389L434.967 165.935H444.967ZM521.858 153.996C521.304 155.148 520.792 156.364 520.322 157.644C519.853 158.924 519.426 160.097 519.042 161.164C518.146 163.596 517.08 166.22 515.842 169.036C514.648 171.852 513.304 174.625 511.81 177.356C510.36 180.044 508.76 182.476 507.01 184.652C505.218 186.913 503.042 189.238 500.482 191.628C497.965 193.974 495.192 196.172 492.162 198.22C489.176 200.225 486.04 201.889 482.754 203.212L475.458 195.724C478.786 194.572 481.944 193.142 484.93 191.436C487.917 189.729 490.669 187.809 493.186 185.676C495.704 183.542 497.901 181.345 499.778 179.084C501.826 176.609 503.64 173.814 505.218 170.7C506.84 167.542 508.205 164.3 509.314 160.972C510.466 157.644 511.32 154.465 511.874 151.436L521.858 153.996ZM175.736 229.116L160.736 284.844H152.395L167.395 229.116H175.736ZM469.748 216.298V292.844H460.566V216.298H469.748ZM162.204 306.116L147.204 361.844H138.863L153.863 306.116H162.204ZM262.042 316.06C263.492 317.254 265.114 318.726 266.906 320.476C268.74 322.182 270.618 324.038 272.538 326.044C274.5 328.049 276.42 330.097 278.298 332.188C280.175 334.236 281.924 336.241 283.546 338.204C285.167 340.124 286.532 341.873 287.642 343.452L279.834 349.66C278.468 347.526 276.783 345.222 274.778 342.748C272.815 340.23 270.66 337.692 268.314 335.132C266.01 332.572 263.684 330.14 261.338 327.836C258.991 325.532 256.772 323.505 254.682 321.756L262.042 316.06ZM467.126 309.404C466.87 310.598 466.593 311.836 466.294 313.116C465.995 314.396 465.739 315.548 465.526 316.572C465.099 318.961 464.587 321.478 463.99 324.124C463.393 326.769 462.71 329.35 461.942 331.868C461.217 334.385 460.449 336.732 459.638 338.908C458.742 341.169 457.633 343.473 456.31 345.82C454.987 348.166 453.537 350.364 451.958 352.412C450.422 354.46 448.865 356.145 447.286 357.468L442.294 350.044C443.958 348.849 445.515 347.398 446.966 345.692C448.417 343.942 449.739 342.001 450.934 339.868C452.129 337.692 453.131 335.473 453.942 333.212C455.35 329.414 456.502 325.233 457.398 320.668C458.337 316.06 458.998 311.452 459.382 306.844L467.126 309.404ZM296.773 370.298V446.844H287.591V370.298H296.773ZM382.15 370.298V446.844H372.969V370.298H382.15ZM467.528 370.298V446.844H458.346V370.298H467.528ZM59.127 454.316L61.303 456.492L3.063 514.732L0.887001 512.556L59.127 454.316ZM125.815 452.524V455.532H61.815V452.524H125.815ZM141.08 447.298V523.844H131.899V447.298H141.08ZM302.71 447.298V523.844H293.529V447.298H302.71ZM388.088 447.298V523.844H378.906V447.298H388.088ZM473.465 447.298V523.844H464.284V447.298H473.465ZM15.6405 524.298V600.844H6.45864V524.298H15.6405ZM41.285 562.571C41.285 556.935 42.035 551.745 43.535 547.003C45.0502 542.26 47.3608 537.866 50.4668 533.821H59.7168C58.535 535.321 57.4365 537.154 56.4214 539.321C55.4062 541.473 54.5199 543.836 53.7623 546.412C53.0047 548.988 52.4138 551.654 51.9895 554.412C51.5653 557.154 51.3532 559.874 51.3532 562.571C51.3532 566.162 51.7168 569.791 52.4441 573.457C53.1865 577.109 54.1865 580.503 55.4441 583.639C56.7168 586.776 58.1411 589.344 59.7168 591.344H50.4668C47.3608 587.298 45.0502 582.904 43.535 578.162C42.035 573.42 41.285 568.223 41.285 562.571ZM124.192 529.524V532.532H60.1925V529.524H124.192ZM146.977 547.06C148.427 548.254 150.049 549.726 151.841 551.476C153.675 553.182 155.553 555.038 157.473 557.044C159.435 559.049 161.355 561.097 163.233 563.188C165.11 565.236 166.859 567.241 168.481 569.204C170.102 571.124 171.467 572.873 172.577 574.452L164.769 580.66C163.403 578.526 161.718 576.222 159.713 573.748C157.75 571.23 155.595 568.692 153.249 566.132C150.945 563.572 148.619 561.14 146.273 558.836C143.926 556.532 141.707 554.505 139.617 552.756L146.977 547.06ZM249.633 590.516V593.524H185.633V590.516H249.633ZM278.875 585.844V593.185H248.307V585.844H278.875ZM301.637 547.06C303.087 548.254 304.709 549.726 306.501 551.476C308.335 553.182 310.213 555.038 312.133 557.044C314.095 559.049 316.015 561.097 317.893 563.188C319.77 565.236 321.519 567.241 323.141 569.204C324.762 571.124 326.127 572.873 327.237 574.452L319.429 580.66C318.063 578.526 316.378 576.222 314.373 573.748C312.41 571.23 310.255 568.692 307.909 566.132C305.605 563.572 303.279 561.14 300.933 558.836C298.586 556.532 296.367 554.505 294.277 552.756L301.637 547.06ZM370.815 585.844V593.185H340.247V585.844H370.815ZM389.694 567.185C389.694 572.836 388.937 578.033 387.422 582.776C385.922 587.518 383.619 591.912 380.513 595.957H371.263C372.444 594.457 373.543 592.624 374.558 590.457C375.573 588.291 376.459 585.927 377.217 583.366C377.975 580.791 378.566 578.124 378.99 575.366C379.414 572.609 379.626 569.882 379.626 567.185C379.626 563.594 379.255 559.973 378.513 556.321C377.785 552.654 376.785 549.26 375.513 546.139C374.255 543.003 372.838 540.435 371.263 538.435H380.513C383.619 542.48 385.922 546.874 387.422 551.616C388.937 556.359 389.694 561.548 389.694 567.185ZM424.943 585.844V593.185H394.375V585.844H424.943ZM454.163 585.844V593.185H423.595V585.844H454.163ZM473.042 567.185C473.042 572.836 472.284 578.033 470.769 582.776C469.269 587.518 466.966 591.912 463.86 595.957H454.61C455.792 594.457 456.89 592.624 457.905 590.457C458.921 588.291 459.807 585.927 460.565 583.366C461.322 580.791 461.913 578.124 462.337 575.366C462.762 572.609 462.974 569.882 462.974 567.185C462.974 563.594 462.602 559.973 461.86 556.321C461.133 552.654 460.133 549.26 458.86 546.139C457.602 543.003 456.186 540.435 454.61 538.435H463.86C466.966 542.48 469.269 546.874 470.769 551.616C472.284 556.359 473.042 561.548 473.042 567.185ZM59.127 668.732L0.887001 610.492L3.063 608.316L61.303 666.556L59.127 668.732ZM70.647 617.276H117.111V625.724H70.647V617.276ZM65.271 654.46H122.423V663.228H65.271V654.46ZM127.991 627.772C129.186 627.558 130.508 627.26 131.959 626.876C133.41 626.492 134.711 626.15 135.863 625.852C137.1 625.468 138.764 624.934 140.855 624.252C142.988 623.569 145.335 622.886 147.895 622.204C150.455 621.521 153.058 620.945 155.703 620.476C158.391 619.964 160.887 619.708 163.191 619.708C167.074 619.708 170.572 620.433 173.687 621.884C176.802 623.334 179.276 625.425 181.111 628.156C182.946 630.886 183.863 634.236 183.863 638.204C183.863 641.105 183.33 643.793 182.263 646.268C181.196 648.742 179.618 650.961 177.527 652.924C175.479 654.886 172.983 656.593 170.039 658.044C167.095 659.494 163.724 660.668 159.927 661.564C156.172 662.417 152.034 662.95 147.511 663.164L143.799 654.652C148.151 654.566 152.183 654.182 155.895 653.5C159.65 652.774 162.935 651.75 165.751 650.428C168.567 649.062 170.764 647.356 172.343 645.308C173.922 643.26 174.711 640.849 174.711 638.076C174.711 636.07 174.263 634.278 173.367 632.7C172.471 631.078 171.127 629.798 169.335 628.86C167.586 627.921 165.431 627.452 162.871 627.452C160.994 627.452 158.924 627.686 156.663 628.156C154.402 628.582 152.076 629.158 149.687 629.884C147.34 630.609 145.036 631.398 142.775 632.252C140.514 633.062 138.423 633.873 136.503 634.684C134.583 635.494 132.962 636.177 131.639 636.732L127.991 627.772Z" fill="white"/>
</svg>
